<?xml version="1.0" encoding="utf-8"?>
<!-- Generator: Adobe Illustrator 26.3.1, SVG Export Plug-In . SVG Version: 6.00 Build 0)  -->
<svg version="1.0" id="Ebene_1" xmlns="http://www.w3.org/2000/svg" xmlns:xlink="http://www.w3.org/1999/xlink" x="0px" y="0px"
	 viewBox="0 0 16 16" style="enable-background:new 0 0 16 16;" xml:space="preserve">
<style type="text/css">
	.st0{fill:#929292;}
	.st1{fill:#0D5C7F;}
	.st2{fill:#FFFFFF;}
	.st3{fill:#196B99;}
</style>
<path class="st0" d="M1.3,13.6c-0.3,0-0.6-0.3-0.6-0.7L1,8.3C1,8,1.1,7.6,1.3,7.4l1.9-1.9c0.1-0.1,0.3-0.2,0.4-0.2
	c0.2,0,0.3,0.1,0.5,0.2l1.7,2.2C6,7.9,6.1,8.3,6.1,8.6l-0.3,4.7c0,0.3-0.3,0.6-0.6,0.6L1.3,13.6z M3.6,7.1c-0.2,0-0.3,0.1-0.3,0.3
	c0,0.1,0,0.2,0.1,0.2s0.1,0.1,0.2,0.1c0,0,0,0,0,0c0.2,0,0.4-0.1,0.4-0.3c0-0.1,0-0.2-0.1-0.2C3.8,7.1,3.7,7.1,3.6,7.1V6.9V7.1z"/>
<g>
	<path class="st1" d="M5.4,14.7c-0.3,0-0.6-0.2-0.7-0.5L2.5,9.1C2.4,8.8,2.4,8.3,2.5,8l1-3.1c0.1-0.3,0.3-0.5,0.6-0.5
		c0.1,0,0.2,0,0.3,0.1l2.9,1.4C7.7,6.1,8,6.4,8.1,6.7l2.2,5.2c0.1,0.2,0.1,0.4,0,0.6c-0.1,0.2-0.2,0.3-0.4,0.4l-4.2,1.8
		C5.6,14.7,5.5,14.7,5.4,14.7L5.4,14.7z M4.9,6.4c-0.1,0-0.1,0-0.2,0C4.5,6.5,4.4,6.8,4.5,7c0.1,0.2,0.2,0.3,0.4,0.3
		c0.1,0,0.1,0,0.2,0c0.1,0,0.2-0.1,0.2-0.2c0-0.1,0-0.2,0-0.3C5.2,6.5,5,6.4,4.9,6.4z"/>
	<path class="st2" d="M4.1,4.7c0.1,0,0.1,0,0.2,0l2.9,1.4c0.2,0.1,0.5,0.4,0.6,0.7l2.2,5.2c0.1,0.3,0,0.5-0.3,0.7l-4.2,1.8
		c-0.1,0-0.1,0-0.2,0c-0.2,0-0.4-0.1-0.5-0.3L2.8,9c-0.1-0.3-0.1-0.7,0-0.9l1-3.1C3.8,4.8,3.9,4.7,4.1,4.7 M4.9,7.5
		c0.1,0,0.2,0,0.3-0.1c0.3-0.1,0.5-0.5,0.3-0.9C5.4,6.3,5.1,6.1,4.9,6.1c-0.1,0-0.2,0-0.3,0.1C4.3,6.3,4.1,6.7,4.2,7.1
		C4.4,7.3,4.6,7.5,4.9,7.5 M4.1,4.2c-0.4,0-0.8,0.3-0.9,0.7l-1,3.1C2.1,8.3,2.1,8.8,2.3,9.2l2.2,5.2C4.7,14.8,5,15,5.4,15
		c0.1,0,0.3,0,0.4-0.1l4.2-1.8c0.2-0.1,0.4-0.3,0.5-0.5c0.1-0.2,0.1-0.5,0-0.8L8.4,6.6C8.2,6.3,7.8,5.9,7.5,5.7L4.5,4.3
		C4.4,4.2,4.3,4.2,4.1,4.2L4.1,4.2z M4.9,7c0,0-0.1,0-0.1-0.1c0-0.1,0-0.1,0-0.1c0,0,0-0.1,0.1-0.1c0,0,0,0,0.1,0c0,0,0.1,0,0.1,0.1
		C5,6.8,5,6.9,4.9,7C4.9,7,4.9,7,4.9,7L4.9,7z"/>
</g>
<g>
	<path class="st3" d="M10.1,12.6c-0.2,0-0.5-0.1-0.6-0.3L5.1,6.5C4.9,6.2,4.8,5.8,4.8,5.4L5,1.1c0-0.4,0.3-0.6,0.7-0.6l0.1,0
		l4.3,0.9c0.3,0.1,0.7,0.3,0.9,0.6l4.4,5.8c0.3,0.3,0.2,0.8-0.1,1.1l-4.8,3.7C10.5,12.5,10.3,12.6,10.1,12.6z M7.2,2.5
		c-0.1,0-0.2,0-0.4,0.1C6.6,2.8,6.6,3.2,6.8,3.5c0.1,0.1,0.3,0.2,0.5,0.2c0.1,0,0.2,0,0.4-0.1c0.1-0.1,0.2-0.2,0.2-0.4
		c0-0.2,0-0.3-0.1-0.4C7.6,2.6,7.4,2.5,7.2,2.5z"/>
	<path class="st2" d="M5.7,0.7C5.7,0.7,5.8,0.7,5.7,0.7l4.4,0.9c0.3,0.1,0.6,0.3,0.8,0.5l4.4,5.8c0.2,0.2,0.1,0.5-0.1,0.7l-4.8,3.7
		c-0.1,0.1-0.2,0.1-0.3,0.1c-0.2,0-0.3-0.1-0.4-0.2L5.3,6.3C5.1,6.1,5,5.7,5,5.4l0.3-4.3C5.3,0.9,5.5,0.7,5.7,0.7 M7.2,3.9
		c0.2,0,0.4-0.1,0.5-0.2C8.1,3.5,8.2,3,7.9,2.6C7.7,2.4,7.5,2.3,7.2,2.3c-0.2,0-0.4,0.1-0.5,0.2C6.4,2.7,6.3,3.2,6.6,3.6
		C6.7,3.8,7,3.9,7.2,3.9 M5.7,0.2c-0.5,0-0.9,0.4-0.9,0.9L4.5,5.4c0,0.4,0.1,0.9,0.4,1.2l4.4,5.8c0.2,0.2,0.5,0.4,0.8,0.4
		c0.2,0,0.4-0.1,0.6-0.2l4.8-3.7c0.4-0.3,0.5-1,0.2-1.4l-4.4-5.8c-0.2-0.3-0.7-0.6-1.1-0.7L5.9,0.2C5.8,0.2,5.8,0.2,5.7,0.2L5.7,0.2
		z M7.2,3.4C7.1,3.4,7,3.4,7,3.3C6.9,3.2,6.9,3.1,6.9,3.1C6.9,3,7,2.9,7,2.8c0.1-0.1,0.1-0.1,0.2-0.1c0.1,0,0.2,0,0.3,0.1
		C7.5,3,7.6,3.1,7.6,3.1c0,0.1-0.1,0.2-0.1,0.2C7.4,3.4,7.3,3.4,7.2,3.4L7.2,3.4z"/>
</g>
</svg>
